<svg width="8" height="12" viewBox="0 0 8 12" fill="none" xmlns="http://www.w3.org/2000/svg">
<path d="M6.96474 10.9228C7.14583 10.7305 7.24343 10.4743 7.23625 10.2102C7.22906 9.94609 7.11767 9.69558 6.92639 9.51335L3.29005 6.02097L6.73245 2.38599C6.91354 2.19363 7.01115 1.93743 7.00396 1.67334C6.99677 1.40925 6.88538 1.15874 6.6941 0.976511C6.59862 0.885346 6.48604 0.813987 6.36284 0.766552C6.23965 0.719117 6.10828 0.696544 5.97632 0.700134C5.84435 0.703725 5.71441 0.733409 5.59397 0.787473C5.47354 0.841537 5.365 0.918913 5.27462 1.01514L1.15152 5.36889C1.06036 5.46437 0.988998 5.57696 0.941563 5.70015C0.894127 5.82335 0.871554 5.95471 0.875145 6.08668C0.878735 6.21864 0.908419 6.34859 0.962484 6.46902C1.01655 6.58945 1.09392 6.69799 1.19015 6.78837L5.54526 10.9615C5.64074 11.0526 5.75333 11.124 5.87652 11.1714C5.99972 11.2188 6.13109 11.2414 6.26305 11.2378C6.39501 11.2342 6.52496 11.2046 6.64539 11.1505C6.76582 11.0964 6.87436 11.0191 6.96474 10.9228Z" fill="white"/>
</svg>
